<?xml version="1.0" encoding="utf-8"?>
<!-- Generator: Adobe Illustrator 23.0.3, SVG Export Plug-In . SVG Version: 6.00 Build 0)  -->
<svg version="1.1" id="Layer_1" xmlns="http://www.w3.org/2000/svg" xmlns:xlink="http://www.w3.org/1999/xlink" x="0px" y="0px"
	 viewBox="0 0 685 480" style="enable-background:new 0 0 685 480;" xml:space="preserve">
<style type="text/css">
	.st0{fill:#C8E3ED;}
	.st1{fill:#008FD5;}
	.st2{opacity:0.3;fill:url(#Path_165_1_);enable-background:new    ;}
	.st3{opacity:0.3;fill:url(#Path_166_1_);enable-background:new    ;}
	.st4{opacity:0.3;fill:url(#Path_167_1_);enable-background:new    ;}
	.st5{opacity:0.3;fill:url(#Path_168_1_);enable-background:new    ;}
	.st6{fill:none;stroke:#0273B8;stroke-width:2;stroke-miterlimit:10;}
	.st7{fill:none;stroke:#F9A61C;stroke-width:2;stroke-linecap:round;stroke-miterlimit:10;}
	.st8{fill:none;stroke:#FCB53A;stroke-width:2;stroke-linecap:round;stroke-miterlimit:10;}
	.st9{fill:#231F20;}
	.st10{font-family:'ArialMT';}
	.st11{font-size:13px;}
	.st12{letter-spacing:1;}
	.st13{fill:none;stroke:#046B9A;}
	.st14{fill:#046B9A;}
</style>
<g>
	<g id="shaped" transform="translate(374.896 49.187)">
		<path id="Path_24" class="st0" d="M62.26,351.8l0.17-23.49l23.28,23.77L62.26,351.8z"/>
		<path id="Path_25" class="st1" d="M62.5,328.5l23.03,23.52l-23.17-0.28l0.16-23.23 M62.37,328.13l-0.16,23.76l23.69,0.28
			l-23.53-24.03L62.37,328.13z"/>
		<path id="Path_26" class="st0" d="M63.24,328.01l23.45,0.29l-0.17,23.49L63.24,328.01z"/>
		<path id="Path_27" class="st1" d="M63.42,328.09l23.17,0.28l-0.17,23.24L63.4,328.1 M63.04,327.94l23.53,24.03l0.17-23.76
			l-23.69-0.3L63.04,327.94z"/>
		<path id="Path_28" class="st0" d="M62.92,327.27l11.38-11.48l11.34,11.53L62.92,327.27z"/>
		<path id="Path_29" class="st1" d="M74.29,315.9l11.17,11.36L63.1,327.2l11.2-11.29 M74.3,315.7l-11.56,11.65l23.08,0.06
			L74.3,315.7L74.3,315.7z"/>
		<path id="Path_30" class="st0" d="M61.83,327.76v11.59l-11.62,0.06L61.83,327.76z"/>
		<path id="Path_31" class="st1" d="M61.76,327.94v11.34l-11.36,0.07L61.76,327.94 M61.9,327.58l-11.88,11.91l11.88-0.07v-11.88
			V327.58z"/>
		<path id="Path_32" class="st0" d="M87.07,352.14l0.15-11.62l11.45,11.83L87.07,352.14z"/>
		<path id="Path_33" class="st1" d="M87.29,340.7l11.2,11.57l-11.34-0.2L87.29,340.7 M87.15,340.34l-0.13,11.87l11.84,0.21
			l-11.71-12.09L87.15,340.34z"/>
		<path id="Path_34" class="st0" d="M50.07,351.62l0.16-11.72l11.32,0.09l-0.09,11.78L50.07,351.62z"/>
		<path id="Path_35" class="st1" d="M50.3,339.98l11.17,0.08l-0.09,11.64l-11.23-0.15L50.3,339.98 M50.16,339.83L50,351.71
			l11.53,0.15l0.09-11.93l-11.46-0.09V339.83z"/>
		<path id="Path_36" class="st0" d="M87.21,339.77l0.25-11.82l11.41,11.99l-0.16,11.42L87.21,339.77z"/>
		<path id="Path_37" class="st1" d="M87.54,328.13l11.24,11.81l-0.14,11.23l-11.33-11.41L87.54,328.13 M87.39,327.77l-0.23,12.05
			l11.62,11.71l0.14-11.64L87.39,327.77z"/>
		<path id="Path_38" class="st0" d="M134.87,356.55l0.16-23.49l23.28,23.77L134.87,356.55z"/>
		<path id="Path_39" class="st1" d="M135.13,333.25l23.03,23.52l-23.17-0.28l0.16-23.23 M135.01,332.88l-0.17,23.76l23.7,0.28
			l-23.53-24.03L135.01,332.88z"/>
		<path id="Path_40" class="st0" d="M135.45,332.76l23.44,0.29l-0.17,23.49L135.45,332.76z"/>
		<path id="Path_41" class="st1" d="M135.63,332.84l23.17,0.28l-0.14,23.24l-23.02-23.52 M135.27,332.7l23.53,24.03l0.17-23.76
			l-23.69-0.3V332.7z"/>
		<path id="Path_42" class="st0" d="M159.48,333.65l11.48,11.37l-11.53,11.35L159.48,333.65z"/>
		<path id="Path_43" class="st1" d="M159.55,333.82l11.29,11.19l-11.36,11.17l0.06-22.36 M159.4,333.47l-0.07,23.08l11.72-11.53
			L159.4,333.47z"/>
		<path id="Path_44" class="st0" d="M147.01,320.43v11.59l-11.61,0.07L147.01,320.43z"/>
		<path id="Path_45" class="st1" d="M146.93,320.61v11.34l-11.36,0.06L146.93,320.61 M147.08,320.25l-11.88,11.92l11.88-0.07V320.25
			z"/>
		<path id="Path_46" class="st0" d="M159.65,356.82l11.93-11.34l-0.32,11.59L159.65,356.82z"/>
		<path id="Path_47" class="st1" d="M171.5,345.67l-0.31,11.34l-11.36-0.25L171.5,345.67 M171.65,345.32l-12.18,11.57l11.88,0.26
			l0.32-11.84L171.65,345.32z"/>
		<path id="Path_48" class="st0" d="M147.53,332.22l0.15-11.71l11.32,0.08l-0.09,11.78L147.53,332.22z"/>
		<path id="Path_49" class="st1" d="M147.76,320.58l11.17,0.09l-0.09,11.63l-11.24-0.15L147.76,320.58 M147.61,320.43l-0.16,11.88
			l11.53,0.16l0.09-11.93L147.61,320.43L147.61,320.43z"/>
		<path id="Path_50" class="st0" d="M159.33,332.55l0.25-11.82l11.41,11.98l-0.16,11.42L159.33,332.55z"/>
		<path id="Path_51" class="st1" d="M159.64,320.9l11.24,11.81l-0.14,11.23l-11.33-11.41L159.64,320.9 M159.5,320.54l-0.23,12.06
			l11.62,11.71l0.14-11.64l-11.56-12.13L159.5,320.54z"/>
		<path id="Path_52" class="st0" d="M22.81,213.59l16.58,16.58l-16.52,16.69L22.81,213.59z"/>
		<path id="Path_53" class="st1" d="M22.86,213.77l16.4,16.4l-16.34,16.51L22.86,213.77 M22.71,213.41l0.06,33.63l16.72-16.88
			l-16.76-16.76L22.71,213.41z"/>
		<path id="Path_54" class="st0" d="M23.24,212.97l33.28,0.23l-16.72,16.44L23.24,212.97z"/>
		<path id="Path_55" class="st1" d="M23.42,213.05l32.91,0.22l-16.54,16.26L23.42,213.05 M23.06,212.9l16.73,16.84l16.9-16.63
			l-33.63-0.23L23.06,212.9z"/>
		<path id="Path_56" class="st0" d="M40.72,247.04l16.16-15.97l0.02,16.16L40.72,247.04z"/>
		<path id="Path_57" class="st1" d="M56.8,231.25v15.9l-15.93-0.18l15.91-15.72 M56.93,230.89l-16.41,16.22l16.44,0.18v-16.41
			L56.93,230.89z"/>
		<path id="Path_58" class="st0" d="M23.37,247.12l8.27-8.13l8.19,8.24L23.37,247.12z"/>
		<path id="Path_59" class="st1" d="M31.64,239.09l8.01,8.06l-16.1-0.11L31.64,239.09 M31.64,238.88l-8.45,8.32l16.82,0.11
			L31.64,238.88L31.64,238.88z"/>
		<path id="Path_60" class="st0" d="M40.11,230.2l8.16-8.27l0.07,16.45L40.11,230.2z"/>
		<path id="Path_61" class="st1" d="M48.19,222.12l0.07,16.1l-8.04-8.02L48.19,222.12 M48.34,221.76l-8.32,8.46l8.38,8.34
			l-0.07-16.82L48.34,221.76z"/>
		<path id="Path_62" class="st0" d="M31.78,238.72l7.94-8.07l8.4,8.26l-8.04,8.07L31.78,238.72z"/>
		<path id="Path_63" class="st1" d="M39.72,230.75l8.32,8.16l-7.95,7.96l-8.2-8.17L39.72,230.75 M39.72,230.55l-8.04,8.17l8.4,8.35
			l8.14-8.17l-8.5-8.37L39.72,230.55z"/>
		<path id="Path_64" class="st0" d="M48.68,221.67l8.43-8.29l-0.2,16.55l-8.08,8.06L48.68,221.67z"/>
		<path id="Path_65" class="st1" d="M57.03,213.56l-0.2,16.28l-7.94,7.94l-0.14-16.08l8.28-8.17 M57.19,213.18l-8.58,8.46l0.14,16.5
			l8.23-8.23L57.19,213.18z"/>
		<path id="Path_66" class="st0" d="M86.04,220.66l24.02,23.02l-23.44,0.46L86.04,220.66z"/>
		<path id="Path_67" class="st1" d="M86.13,220.84l23.76,22.77l-23.17,0.45L86.13,220.84 M85.97,220.49l0.59,23.73l23.69-0.46
			L85.97,220.49L85.97,220.49z"/>
		<path id="Path_68" class="st0" d="M86.75,219.63l23.44-0.15l0.27,23.48L86.75,219.63z"/>
		<path id="Path_69" class="st1" d="M110.12,219.56l0.27,23.23l-23.46-23.08l23.17-0.15 M110.24,219.41l-23.69,0.15l23.97,23.59
			l-0.28-23.76L110.24,219.41z"/>
		<path id="Path_70" class="st0" d="M112.16,243.72l11.38-11.46l11.34,11.54L112.16,243.72z"/>
		<path id="Path_71" class="st1" d="M123.54,232.36l11.16,11.36l-22.36-0.07L123.54,232.36 M123.53,232.16l-11.57,11.64l23.08,0.07
			l-11.52-11.72L123.53,232.16z"/>
		<path id="Path_72" class="st0" d="M111.15,231.94l11.61-0.11l-11.57,11.7L111.15,231.94z"/>
		<path id="Path_73" class="st1" d="M122.59,231.91l-11.29,11.45l-0.05-11.35l11.36-0.1 M122.98,231.76l-11.88,0.11l0.05,11.84
			L122.98,231.76L122.98,231.76z"/>
		<path id="Path_74" class="st0" d="M124.14,218.86l11.59-0.03l0.09,11.61L124.14,218.86z"/>
		<path id="Path_75" class="st1" d="M135.66,218.9l0.09,11.36l-11.43-11.33L135.66,218.9 M135.81,218.75l-11.85,0.03l11.95,11.84
			l-0.1-11.88L135.81,218.75z"/>
		<path id="Path_76" class="st0" d="M111.05,219.36l11.32-0.1l0.09,11.78l-11.38,0.03L111.05,219.36z"/>
		<path id="Path_77" class="st1" d="M122.28,219.33l0.1,11.64h-11.24V219.4l11.17-0.1 M122.46,219.16l-11.46,0.1v11.88l11.53-0.03
			l-0.1-11.93L122.46,219.16z"/>
		<path id="Path_78" class="st0" d="M123.58,231.18l-0.13-11.82l11.78,11.62l0.2,11.42L123.58,231.18z"/>
		<path id="Path_79" class="st1" d="M123.53,219.53l11.59,11.45l0.21,11.23l-11.68-11.05l-0.14-11.63 M123.36,219.18l0.15,12.05
			l11.99,11.33l-0.22-11.64l-11.9-11.77L123.36,219.18z"/>
		<path id="Path_80" class="st0" d="M175.02,234.63l23.49,0.16l-23.77,23.28L175.02,234.63z"/>
		<path id="Path_81" class="st1" d="M175.1,234.7l23.23,0.16l-23.51,23.04L175.1,234.7 M174.95,234.55l-0.28,23.7l24.02-23.53
			l-23.76-0.17L174.95,234.55z"/>
		<path id="Path_82" class="st0" d="M175.17,234.04l0.23-23.49l23.21,23.84L175.17,234.04z"/>
		<path id="Path_83" class="st1" d="M175.47,210.73l22.96,23.58l-23.17-0.35l0.23-23.23 M175.35,210.37l-0.23,23.76l23.69,0.36
			l-23.46-24.1L175.35,210.37z"/>
		<path id="Path_84" class="st0" d="M187.54,222.37l22.72,0.05l-11.37,11.48L187.54,222.37z"/>
		<path id="Path_85" class="st1" d="M187.72,222.44l22.36,0.06l-11.19,11.29l-11.17-11.36 M187.36,222.28L198.89,234l11.55-11.65
			l-23.08-0.06L187.36,222.28z"/>
		<path id="Path_86" class="st0" d="M199.28,210.16l11.62-0.11l-11.57,11.7L199.28,210.16z"/>
		<path id="Path_87" class="st1" d="M210.71,210.13l-11.29,11.45l-0.08-11.33L210.71,210.13 M211.07,209.99l-11.88,0.11l0.05,11.85
			L211.07,209.99L211.07,209.99z"/>
		<path id="Path_88" class="st0" d="M175.57,210.14l11.59,0.11l-0.05,11.61L175.57,210.14z"/>
		<path id="Path_89" class="st1" d="M175.75,210.21l11.34,0.11l-0.05,11.36L175.75,210.21 M175.4,210.06l11.8,11.99l0.05-11.88
			l-11.88-0.11L175.4,210.06z"/>
		<path id="Path_90" class="st0" d="M187.56,210.17l11.32-0.1l0.1,11.79l-11.38,0.02L187.56,210.17z"/>
		<path id="Path_91" class="st1" d="M198.8,210.15l0.1,11.63l-11.24,0.03l-0.03-11.57L198.8,210.15 M198.95,210l-11.46,0.1
			l0.03,11.88l11.53-0.03l-0.1-11.93L198.95,210z"/>
		<path id="Path_92" class="st0" d="M211.29,210.23l11.42-0.15l-11.26,11.81l-11.83,0.07L211.29,210.23z"/>
		<path id="Path_93" class="st1" d="M222.52,210.16l-11.1,11.64l-11.64,0.09l11.51-11.56L222.52,210.16 M222.87,210.01l-11.64,0.17
			l-11.8,11.88l12.06-0.1l11.38-11.94L222.87,210.01z"/>
		<path id="Path_94" class="st0" d="M179.39,121.47l23.49-0.01l-23.6,23.46L179.39,121.47z"/>
		<path id="Path_95" class="st1" d="M202.7,121.53l-23.34,23.2l0.11-23.17h23.23 M203.06,121.42H179.3l-0.11,23.7l23.85-23.71
			L203.06,121.42z"/>
		<path id="Path_96" class="st0" d="M155.06,121.29l23.44,0.06l0.06,23.49L155.06,121.29z"/>
		<path id="Path_97" class="st1" d="M155.24,121.36l23.17,0.07l0.06,23.23l-23.26-23.3 M154.86,121.21l23.76,23.81l-0.07-23.76
			l-23.69-0.07L154.86,121.21z"/>
		<path id="Path_98" class="st0" d="M142.62,132.46l11.53-11.32l11.19,11.7L142.62,132.46z"/>
		<path id="Path_99" class="st1" d="M154.14,121.25l11.01,11.51l-22.36-0.36L154.14,121.25 M154.14,121.04l-11.71,11.49l23.07,0.37
			l-11.36-11.88V121.04z"/>
		<path id="Path_100" class="st0" d="M129.71,144.16l11.78-11.49l-0.16,11.6L129.71,144.16z"/>
		<path id="Path_101" class="st1" d="M141.41,132.85l-0.16,11.35l-11.36-0.1L141.41,132.85 M141.56,132.5l-12.03,11.75l11.88,0.1
			l0.17-11.85L141.56,132.5z"/>
		<path id="Path_102" class="st0" d="M153.84,144.85l0.44-11.61l11.14,12.11L153.84,144.85z"/>
		<path id="Path_103" class="st1" d="M154.35,133.42l10.89,11.85l-11.33-0.49L154.35,133.42 M154.22,133.05l-0.45,11.88l11.84,0.51
			l-11.39-12.37V133.05z"/>
		<path id="Path_104" class="st0" d="M141.78,144.45l0.18-11.32l11.78,0.18l-0.25,11.38L141.78,144.45z"/>
		<path id="Path_105" class="st1" d="M142.04,133.2l11.63,0.19l-0.24,11.23l-11.57-0.26L142.04,133.2 M141.89,133.06l-0.18,11.46
			l11.88,0.26l0.26-11.53l-11.93-0.19H141.89z"/>
		<path id="Path_106" class="st0" d="M166.32,145.11l-11.27-11.73l11.47,0.11l11.68,11.65L166.32,145.11z"/>
		<path id="Path_107" class="st1" d="M155.23,133.46l11.23,0.11l11.56,11.5h-11.63l-11.16-11.58 M154.88,133.34l11.44,11.88
			l12.06,0.04l-11.88-11.8l-11.64-0.11L154.88,133.34z"/>
		<path id="Path_108" class="st0" d="M80.6,123.31l23.48-0.49l-23.12,23.93L80.6,123.31z"/>
		<path id="Path_109" class="st1" d="M103.9,122.93L81.03,146.6l-0.36-23.17l23.22-0.48 M104.25,122.8l-23.76,0.49l0.37,23.7
			l23.37-24.24L104.25,122.8z"/>
		<path id="Path_110" class="st0" d="M31.78,124.41l23.47-0.71l0.83,23.43L31.78,124.41z"/>
		<path id="Path_111" class="st1" d="M55.19,123.78l0.82,23.17l-24.04-22.47l23.22-0.71 M55.33,123.61l-23.73,0.73l24.57,22.96
			L55.33,123.61z"/>
		<path id="Path_112" class="st0" d="M68.62,135.45l11.3-11.59l0.42,22.71L68.62,135.45z"/>
		<path id="Path_113" class="st1" d="M79.85,124.04l0.41,22.36l-11.53-10.95L79.85,124.04 M79.99,123.68l-11.47,11.77l11.88,11.29
			l-0.43-23.07L79.99,123.68z"/>
		<path id="Path_114" class="st0" d="M68.14,135.62l11.97,11.29l-11.59,0.33L68.14,135.62z"/>
		<path id="Path_115" class="st1" d="M68.22,135.8l11.71,11.04l-11.34,0.32L68.22,135.8 M68.06,135.44l0.39,11.88l11.84-0.33
			l-12.24-11.54L68.06,135.44z"/>
		<path id="Path_116" class="st0" d="M56.27,123.49l11.62-0.14l-11.54,11.73L56.27,123.49z"/>
		<path id="Path_117" class="st1" d="M67.71,123.43l-11.29,11.47l-0.07-11.34L67.71,123.43 M68.07,123.27l-11.88,0.14l0.08,11.85
			l11.79-11.99H68.07z"/>
		<path id="Path_118" class="st0" d="M56.47,135.82l11.38-0.18l0.2,11.71l-11.32,0.26L56.47,135.82z"/>
		<path id="Path_119" class="st1" d="M67.78,135.72l0.19,11.57l-11.17,0.25l-0.26-11.63L67.78,135.72 M67.92,135.57l-11.53,0.19
			l0.27,11.93l11.46-0.26l-0.2-11.88L67.92,135.57z"/>
		<path id="Path_120" class="st0" d="M68.23,123.3l11.41-0.26l-11.16,11.92l-11.82,0.18L68.23,123.3z"/>
		<path id="Path_121" class="st1" d="M79.47,123.13l-10.99,11.73l-11.63,0.2l11.4-11.67L79.47,123.13 M79.82,122.97l-11.64,0.28
			l-11.69,11.97l12.05-0.21L79.82,122.97L79.82,122.97z"/>
		<path id="Path_122" class="st0" d="M102.9,41.22l16.52-16.7l0.06,33.27L102.9,41.22z"/>
		<path id="Path_123" class="st1" d="M119.35,24.7l0.05,32.91l-16.39-16.4L119.35,24.7 M119.5,24.34l-16.7,16.88l16.76,16.76
			L119.5,24.34z"/>
		<path id="Path_124" class="st0" d="M94.69,66.81l16.72-16.44l16.55,16.66L94.69,66.81z"/>
		<path id="Path_125" class="st1" d="M111.4,50.46l16.38,16.48l-32.91-0.22L111.4,50.46 M111.4,50.25L94.5,66.88l33.63,0.23
			L111.4,50.27L111.4,50.25z"/>
		<path id="Path_126" class="st0" d="M119.78,24.53l16.18,0.18l-16.16,15.98L119.78,24.53z"/>
		<path id="Path_127" class="st1" d="M119.86,24.6l15.92,0.18L119.88,40.5V24.6 M119.73,24.45v16.41l16.41-16.23l-16.43-0.18H119.73
			z"/>
		<path id="Path_128" class="st0" d="M120.1,41.19l8.13,8.27L120,57.65L120.1,41.19z"/>
		<path id="Path_129" class="st1" d="M120.18,41.38l7.95,8.08l-8.06,8.01L120.18,41.38 M120.03,41.02l-0.11,16.82l8.42-8.37
			L120.03,41.02L120.03,41.02z"/>
		<path id="Path_130" class="st0" d="M94.21,32.73l16.45-0.07l-8.18,8.22L94.21,32.73z"/>
		<path id="Path_131" class="st1" d="M110.49,32.73l-8,8.04l-8.1-7.98L110.49,32.73 M110.84,32.58l-16.82,0.07l8.46,8.32l8.36-8.4
			L110.84,32.58z"/>
		<path id="Path_132" class="st0" d="M94.77,49.8l7.94-8.07l8.4,8.27l-8.04,8.07L94.77,49.8z"/>
		<path id="Path_133" class="st1" d="M102.7,41.84l8.32,8.16l-7.97,7.96l-8.2-8.16l7.84-7.96 M102.68,41.63l-8.04,8.17l8.4,8.38
			l8.14-8.17L102.68,41.63L102.68,41.63z"/>
		<path id="Path_134" class="st0" d="M93.96,31.87l-8.06-8.08l16.32-0.15l8.29,8.43L93.96,31.87z"/>
		<path id="Path_135" class="st1" d="M102.16,23.73l8.17,8.28l-16.3-0.2l-7.94-7.94L102.16,23.73 M102.22,23.58l-16.5,0.15
			l8.23,8.23l16.73,0.2l-8.47-8.6L102.22,23.58z"/>
		<path id="Path_136" class="st0" d="M177.8,66.94l11.38-11.46l11.34,11.55L177.8,66.94z"/>
		<path id="Path_137" class="st1" d="M189.18,55.59l11.16,11.36l-22.36-0.08L189.18,55.59 M189.18,55.37l-11.56,11.64l23.08,0.08
			L189.18,55.37z"/>
		<path id="Path_138" class="st0" d="M183.92,48.7l8.42-7.97l8.03,8.39L183.92,48.7z"/>
		<path id="Path_139" class="st1" d="M192.33,40.83l7.85,8.21l-16.09-0.41L192.33,40.83 M192.33,40.62l-8.61,8.15l16.81,0.43
			L192.33,40.62z"/>
		<path id="Path_140" class="st0" d="M183.93,49.25l16.45,0.45l-8.43,7.96L183.93,49.25z"/>
		<path id="Path_141" class="st1" d="M184.11,49.33l16.09,0.44l-8.25,7.82l-7.84-8.23 M183.76,49.2l8.19,8.6l8.62-8.13L183.76,49.2z
			"/>
		<path id="Path_142" class="st0" d="M166.17,48.23l8.36-7.63l7.95,8.7l-8.45,7.63L166.17,48.23z"/>
		<path id="Path_143" class="st1" d="M174.52,40.71l7.85,8.57l-8.32,7.53l-7.72-8.59l8.24-7.53 M174.58,40.48l-8.46,7.72l7.95,8.81
			l8.56-7.72L174.58,40.48z"/>
		<path id="Path_144" class="st0" d="M165.23,66.68l11.56-11.52l11.82,0.23l-11.94,11.42L165.23,66.68z"/>
		<path id="Path_145" class="st1" d="M176.79,55.25l11.63,0.2l-11.78,11.29l-11.23-0.12l11.39-11.35 M176.73,55.12l-11.68,11.64
			l11.64,0.13l12.09-11.56L176.73,55.12z"/>
		<path id="Path_146" class="st0" d="M160.1,24.29l23.43,0.91l-0.78,23.48L160.1,24.29z"/>
		<path id="Path_147" class="st1" d="M160.27,24.38l23.17,0.9l-0.77,23.22L160.27,24.38 M159.91,24.22l22.89,24.64l0.79-23.72
			C183.59,25.14,159.91,24.22,159.91,24.22z"/>
		<path id="Path_148" class="st0" d="M184.3,24.95l23.43,0.68l-24.23,22.8L184.3,24.95z"/>
		<path id="Path_149" class="st1" d="M184.37,25.03l23.17,0.67l-23.97,22.57l0.79-23.22 M184.21,24.9l-0.81,23.72l24.5-23.04
			L184.21,24.9z"/>
		<path id="Path_150" class="st0" d="M22.18,21.74l23.43,0.9l-0.78,23.48L22.18,21.74z"/>
		<path id="Path_151" class="st1" d="M22.36,21.82l23.17,0.89l-0.77,23.22L22.36,21.82 M22,21.66L44.9,46.3l0.79-23.73L22,21.66
			L22,21.66z"/>
		<path id="Path_152" class="st0" d="M46.39,22.4l23.43,0.68l-24.23,22.8L46.39,22.4z"/>
		<path id="Path_153" class="st1" d="M46.46,22.48l23.17,0.67L45.67,45.71l0.79-23.22 M46.32,22.34L45.51,46.1l24.5-23.05
			l-23.69-0.68L46.32,22.34z"/>
		<path id="Path_154" class="st0" d="M37.44,54.46l16.51-15.6l-0.34,16.15L37.44,54.46z"/>
		<path id="Path_155" class="st1" d="M53.87,39.03l-0.33,15.9l-15.92-0.54L53.87,39.03 M54.03,38.67L37.26,54.53l16.43,0.55
			L54.03,38.67z"/>
		<path id="Path_156" class="st0" d="M54.56,38.77l8.1,8.3l-8.26,8.16L54.56,38.77z"/>
		<path id="Path_157" class="st1" d="M54.64,38.95l7.92,8.11l-8.09,7.98L54.64,38.95 M54.49,38.59l-0.15,16.82l8.45-8.32
			L54.49,38.59L54.49,38.59z"/>
		<path id="Path_158" class="st0" d="M36.23,55.75l8.25,8.17l-16.45,0.02L36.23,55.75z"/>
		<path id="Path_159" class="st1" d="M36.23,55.85l8.07,8H28.2l8.03-8.01 M36.22,55.63L27.84,64h16.82l-8.43-8.36V55.63z"/>
		<path id="Path_160" class="st0" d="M28.3,46.41l7.94-8.07l8.4,8.26l-8.03,8.07L28.3,46.41z"/>
		<path id="Path_161" class="st1" d="M36.23,38.45l8.32,8.16l-7.92,7.96l-8.2-8.16l7.83-7.96 M36.25,38.24l-8.05,8.17l8.41,8.37
			l8.14-8.17L36.25,38.24L36.25,38.24z"/>
		<path id="Path_162" class="st0" d="M44.92,63.72l-7.88-8.26l16.32,0.21l8.1,8.61L44.92,63.72z"/>
		<path id="Path_163" class="st1" d="M37.22,55.54l16.08,0.21l7.99,8.46l-16.3-0.56L37.22,55.54 M36.87,55.39l8.05,8.41l16.72,0.59
			l-8.28-8.77l-16.5-0.21L36.87,55.39z"/>
	</g>
	<g id="diagram" transform="translate(2 2)">
		<path id="Path_164" class="st0" d="M241.91,415.51c-16.36-48.39-25.68-115.14-25.68-184.77c0-69.99,9.4-136.97,25.9-185.43
			l0.86-2.5c0.38-1.23-0.32-2.53-1.55-2.91c-0.26-0.08-0.53-0.11-0.79-0.1h-77.47c-1.29-0.06-2.38,0.94-2.43,2.23
			c-0.01,0.25,0.02,0.5,0.09,0.74l0.79,2.32c16.54,48.48,25.96,115.54,25.96,185.61c0,69.67-9.33,136.46-25.71,184.87l-1.02,2.97
			c-0.38,1.23,0.32,2.54,1.55,2.91c0.26,0.08,0.52,0.11,0.79,0.1h77.47c1.28,0.06,2.38-0.93,2.44-2.21c0.01-0.27-0.02-0.54-0.1-0.79
			l-1.04-3.05L241.91,415.51z"/>
		
			<linearGradient id="Path_165_1_" gradientUnits="userSpaceOnUse" x1="22.4248" y1="477.7443" x2="23.4248" y2="477.7443" gradientTransform="matrix(174.2 0 0 -114.666 -3683.0613 54883.3047)">
			<stop  offset="0" style="stop-color:#FCB53A"/>
			<stop  offset="1" style="stop-color:#FCB53A;stop-opacity:0"/>
		</linearGradient>
		<path id="Path_165" class="st2" d="M397.54,128.7V44.95l-167.36,60.27c-2.89,17.04-5.2,35.26-6.84,54.4L397.54,128.7z"/>
		
			<linearGradient id="Path_166_1_" gradientUnits="userSpaceOnUse" x1="22.418" y1="477.4567" x2="23.418" y2="477.4567" gradientTransform="matrix(177.049 0 0 -83.06 -3748.5876 39841.7773)">
			<stop  offset="0" style="stop-color:#FCB53A"/>
			<stop  offset="1" style="stop-color:#FCB53A;stop-opacity:0"/>
		</linearGradient>
		<path id="Path_166" class="st3" d="M397.54,225.75v-83.06l-175.05,31.06c-1.19,16.76-1.88,34.15-2,52L397.54,225.75z"/>
		
			<linearGradient id="Path_167_1_" gradientUnits="userSpaceOnUse" x1="22.4247" y1="477.7477" x2="23.4247" y2="477.7477" gradientTransform="matrix(174.241 0 0 -115.181 -3683.2097 55384.5391)">
			<stop  offset="0" style="stop-color:#FCB53A"/>
			<stop  offset="1" style="stop-color:#FCB53A;stop-opacity:0"/>
		</linearGradient>
		<path id="Path_167" class="st4" d="M398.33,414.67V331.4l-174.24-31.92c1.62,19.1,3.9,37.3,6.77,54.31L398.33,414.67z"/>
		
			<linearGradient id="Path_168_1_" gradientUnits="userSpaceOnUse" x1="22.418" y1="477.4705" x2="23.418" y2="477.4705" gradientTransform="matrix(177.051 0 0 -84.17 -3748.6345 40466.7852)">
			<stop  offset="0" style="stop-color:#FCB53A"/>
			<stop  offset="1" style="stop-color:#FCB53A;stop-opacity:0"/>
		</linearGradient>
		<path id="Path_168" class="st5" d="M397.54,320.18v-84.17H220.49c0.11,17.88,0.77,35.31,1.95,52.1L397.54,320.18z"/>
		<path id="Path_169" class="st6" d="M241.03,419.66c1.27,0.01,2.31-1.02,2.31-2.29c0-0.25-0.04-0.51-0.12-0.75
			c-15.44-46.53-25.13-113.15-25.13-187.17c0-74.41,9.78-141.37,25.37-187.91c0.4-1.21-0.25-2.51-1.46-2.91
			c-0.23-0.08-0.48-0.12-0.73-0.12h-83.89c-1.27-0.01-2.31,1.01-2.32,2.28c0,0.26,0.04,0.52,0.12,0.76
			c15.59,46.56,25.37,113.51,25.37,187.92c0,74.02-9.68,140.64-25.13,187.17c-0.4,1.21,0.26,2.51,1.47,2.9
			c0.23,0.08,0.48,0.12,0.72,0.11L241.03,419.66z"/>
		<path id="Path_170" class="st7" d="M393.81,315.64l5.14,7.69c0.45,0.67,0.27,1.59-0.4,2.04l-7.69,5.12"/>
		<path id="Path_171" class="st7" d="M393.61,221.83l6.77,6.3c0.59,0.56,0.62,1.48,0.07,2.08l-6.3,6.77"/>
		<path id="Path_172" class="st7" d="M75.64,221.58l6.77,6.3c0.59,0.55,0.63,1.48,0.08,2.08l-6.3,6.77"/>
		<path id="Path_173" class="st7" d="M143.31,162.65l6.74,6.28c0.59,0.55,0.63,1.48,0.08,2.07c0,0,0,0-0.01,0.01l-6.3,6.77"/>
		<path id="Path_174" class="st7" d="M58.74,103.21l6.76,6.32c0.59,0.55,0.63,1.48,0.08,2.07c0,0,0,0-0.01,0.01l-6.3,6.77"/>
		<path id="Path_175" class="st7" d="M109.51,281.53l6.77,6.3c0.6,0.55,0.63,1.48,0.08,2.08c0,0,0,0,0,0l-6.3,6.77"/>
		<path id="Path_176" class="st7" d="M75.13,340.97l6.77,6.3c0.6,0.56,0.63,1.49,0.08,2.09l-6.3,6.77"/>
		<path id="Path_177" class="st7" d="M389.92,128.78l7.89,4.83c0.69,0.43,0.91,1.33,0.48,2.03l-4.82,7.88"/>
		<path id="Path_178" class="st8" d="M379.65,37.72l8.43,3.79c0.74,0.33,1.07,1.2,0.74,1.94l-3.76,8.45"/>
		<path id="Path_179" class="st8" d="M388.02,42.63l-189.09,68.79h0.39l-159.71-0.28"/>
		<path id="Path_180" class="st8" d="M378.85,421.19l9.68-4.61l-4.62-9.68"/>
		<path id="Path_181" class="st8" d="M387.63,416.61l-189.08-68.8h0.39l-159.71,1.26"/>
		<path id="Path_182" class="st7" d="M398.01,134.48l-201.77,35.36h1.15l-157.4,0.49"/>
		<path id="Path_183" class="st7" d="M398.52,324.08l-201.77-35.35h1.15l-157.4,0.49"/>
		<line id="Line_31" class="st7" x1="41.14" y1="229.51" x2="399.67" y2="229.03"/>
		<text transform="matrix(6.123234e-17 -1 1 6.123234e-17 32 269.5127)" class="st9 st10 st11 st12">I</text>
		<text transform="matrix(6.123234e-17 -1 1 6.123234e-17 32 264.6006)" class="st9 st10 st11 st12">NSIGHT</text>
		<text transform="matrix(6.123234e-17 -1 1 6.123234e-17 32 206.9082)" class="st9 st10 st11">S</text>
		<text transform="matrix(1 0 0 1 396.909 453.2782)" class="st9 st10 st11 st12">F</text>
		<text transform="matrix(1 0 0 1 406.2799 453.2782)" class="st9 st10 st11 st12">IE</text>
		<text transform="matrix(1 0 0 1 421.1626 453.2782)" class="st9 st10 st11 st12">L</text>
		<text transform="matrix(1 0 0 1 429.9526 453.2782)" class="st9 st10 st11 st12">D</text>
		<text transform="matrix(1 0 0 1 440.7708 453.2782)" class="st9 st10 st11 st12">S </text>
		<text transform="matrix(1 0 0 1 455.6535 453.2782)" class="st9 st10 st11 st12">O</text>
		<text transform="matrix(1 0 0 1 467.1953 453.2782)" class="st9 st10 st11 st12">F </text>
		<text transform="matrix(1 0 0 1 481.3481 453.2782)" class="st9 st10 st11 st12">OPPOR</text>
		<text transform="matrix(1 0 0 1 535.4517 453.2782)" class="st9 st10 st11 st12">T</text>
		<text transform="matrix(1 0 0 1 544.9526 453.2782)" class="st9 st10 st11 st12">U</text>
		<text transform="matrix(1 0 0 1 555.7708 453.2782)" class="st9 st10 st11 st12">N</text>
		<text transform="matrix(1 0 0 1 566.459 453.2782)" class="st9 st10 st11 st12">I</text>
		<text transform="matrix(1 0 0 1 571.5008 453.2782)" class="st9 st10 st11 st12">T</text>
		<text transform="matrix(1 0 0 1 581.2617 453.2782)" class="st9 st10 st11">Y</text>
		<text transform="matrix(6.123234e-17 1 -1 6.123234e-17 650 158.9052)" class="st9 st10 st11 st12">P</text>
		<text transform="matrix(6.123234e-17 1 -1 6.123234e-17 650 169.0061)" class="st9 st10 st11 st12">O</text>
		<text transform="matrix(6.123234e-17 1 -1 6.123234e-17 650 180.4179)" class="st9 st10 st11 st12">TENTIA</text>
		<text transform="matrix(6.123234e-17 1 -1 6.123234e-17 650 235.2216)" class="st9 st10 st11 st12">L </text>
		<text transform="matrix(6.123234e-17 1 -1 6.123234e-17 650 248.1809)" class="st9 st10 st11 st12">D</text>
		<text transform="matrix(6.123234e-17 1 -1 6.123234e-17 650 258.9991)" class="st9 st10 st11 st12">E</text>
		<text transform="matrix(6.123234e-17 1 -1 6.123234e-17 650 268.97)" class="st9 st10 st11 st12">S</text>
		<text transform="matrix(6.123234e-17 1 -1 6.123234e-17 650 279.0709)" class="st9 st10 st11 st12">I</text>
		<text transform="matrix(6.123234e-17 1 -1 6.123234e-17 650 283.9828)" class="st9 st10 st11 st12">GN</text>
		<text transform="matrix(6.123234e-17 1 -1 6.123234e-17 650 306.3427)" class="st9 st10 st11">S</text>
		<text transform="matrix(1 0 0 1 163.667 31.6572)" class="st9 st10 st11 st12">HC</text>
		<text transform="matrix(1 0 0 1 185.3034 31.6572)" class="st9 st10 st11 st12">D </text>
		<text transform="matrix(1 0 0 1 200.9034 31.6572)" class="st9 st10 st11 st12">L</text>
		<text transform="matrix(1 0 0 1 209.6934 31.6572)" class="st9 st10 st11 st12">EN</text>
		<text transform="matrix(1 0 0 1 230.6124 31.6572)" class="st9 st10 st11">S</text>
		<path id="Path_184" class="st13" d="M353.4,383.48v68.02h37.46"/>
		<path id="Path_185" class="st14" d="M352.06,383.55c0-0.74,0.6-1.34,1.34-1.35c0.74,0,1.34,0.6,1.35,1.34
			c0,0.74-0.6,1.34-1.34,1.35c0,0,0,0-0.01,0C352.66,384.89,352.06,384.29,352.06,383.55z"/>
		<path id="Path_186" class="st13" d="M588.51,100.65h53.09v286.87h-84"/>
		<circle id="Ellipse_6" class="st14" cx="588.57" cy="100.66" r="1.34"/>
		<circle id="Ellipse_7" class="st14" cx="557.65" cy="387.53" r="1.34"/>
		<line id="Line_32" class="st13" x1="641.59" y1="179.68" x2="574.86" y2="180.48"/>
		<path id="Path_187" class="st14" d="M574.92,179.14c-0.74,0.01-1.34,0.61-1.33,1.35c0.01,0.74,0.61,1.34,1.35,1.33
			s1.34-0.61,1.33-1.35c0,0,0,0,0,0C576.26,179.72,575.66,179.13,574.92,179.14z"/>
		<line id="Line_33" class="st13" x1="641.59" y1="281.74" x2="585.24" y2="281.74"/>
		<path id="Path_188" class="st14" d="M585.31,280.41c-0.74,0-1.33,0.6-1.33,1.34c0,0.74,0.6,1.33,1.34,1.33
			c0.74,0,1.33-0.6,1.33-1.34c0-0.35-0.14-0.69-0.39-0.94C586,280.54,585.66,280.4,585.31,280.41z"/>
	</g>
</g>
</svg>
