<svg xmlns="http://www.w3.org/2000/svg" viewBox="0 0 69 103"><title>products</title><g id="Layer_1" data-name="Layer 1"><rect width="69" height="103" style="fill:#ebf9fb"/><path d="M9.17,85V54.68a3.7,3.7,0,0,1,3.7-3.7H56.1a3.7,3.7,0,0,1,3.7,3.7V85Zm3.11-3H56.69V54.1H12.28Z" style="fill:#9ddfeb"/><path d="M43.2,87.63v1.08a1.89,1.89,0,0,1-1.89,1.88H27.67a1.89,1.89,0,0,1-1.89-1.88V87.63H5.47c-.12,1.87-.12-.26,0,1.6C5.9,92,7.57,93,10.15,93H60c1.92,0,3.07-.57,3.5-3.79.11-1.86.11.28,0-1.58Z" style="fill:#9ddfeb"/><path d="M39.17,7.79H29.83a1.5,1.5,0,0,0-1.5,1.5V29.07a1.5,1.5,0,0,0,1.5,1.5h9.34a1.5,1.5,0,0,0,1.5-1.5V9.29A1.5,1.5,0,0,0,39.17,7.79ZM34.5,29.72a.79.79,0,0,1-.79-.79.79.79,0,1,1,1.58,0A.79.79,0,0,1,34.5,29.72Zm4.94-2.1H29.56V9.39h9.88Z" style="fill:#9ddfeb"/><line x1="17.32" y1="41.27" x2="51.68" y2="41.27" style="fill:none;stroke:#221f20;stroke-linecap:round;stroke-linejoin:round;stroke-width:1.5px"/></g></svg>