<?xml version="1.0" encoding="utf-8"?>
<!-- Generator: Adobe Illustrator 23.0.6, SVG Export Plug-In . SVG Version: 6.00 Build 0)  -->
<svg version="1.1" id="Layer_1" xmlns="http://www.w3.org/2000/svg" xmlns:xlink="http://www.w3.org/1999/xlink" x="0px" y="0px"
	 viewBox="0 0 58 28" style="enable-background:new 0 0 58 28;" xml:space="preserve">
<style type="text/css">
	.st0{clip-path:url(#SVGID_2_);}
	.st1{fill:#EE601D;}
	.st2{fill:#FFFFFF;}
	.st3{enable-background:new    ;}
</style>
<g>
	<defs>
		<rect id="SVGID_1_" width="58" height="28"/>
	</defs>
	<clipPath id="SVGID_2_">
		<use xlink:href="#SVGID_1_"  style="overflow:visible;"/>
	</clipPath>
	<g id="Highlights_off" class="st0">
		<g id="Rectangle_97">
			<path class="st1" d="M14,0h30c7.73,0,14,6.27,14,14l0,0c0,7.73-6.27,14-14,14H14C6.27,28,0,21.73,0,14l0,0C0,6.27,6.27,0,14,0z"
				/>
			<path class="st1" d="M14,0.5h30c7.46,0,13.5,6.04,13.5,13.5l0,0c0,7.46-6.04,13.5-13.5,13.5H14C6.54,27.5,0.5,21.46,0.5,14l0,0
				C0.5,6.54,6.54,0.5,14,0.5z"/>
		</g>
		<path id="Path_233" class="st2" d="M14,5c4.97,0,9,4.03,9,9s-4.03,9-9,9s-9-4.03-9-9S9.03,5,14,5z"/>
		<g>
			<g class="st3">
				<path class="st2" d="M27.6,14.38c0-3.01,1.47-4.71,3.6-4.71c2.13,0,3.6,1.7,3.6,4.71c0,3.07-1.47,4.79-3.6,4.79
					C29.07,19.17,27.6,17.45,27.6,14.38z M33.13,14.38c0-2.1-0.76-3.29-1.93-3.29s-1.93,1.19-1.93,3.29c0,2.16,0.76,3.38,1.93,3.38
					S33.13,16.54,33.13,14.38z"/>
				<path class="st2" d="M36.44,9.84h1.71l2.42,5.14l0.83,1.96h0.04c-0.07-0.94-0.22-2.1-0.22-3.12V9.84h1.55V19h-1.71l-2.42-5.15
					l-0.83-1.95h-0.04c0.07,0.98,0.22,2.07,0.22,3.1V19h-1.55V9.84z"/>
			</g>
		</g>
	</g>
</g>
</svg>
