<?xml version="1.0" encoding="utf-8"?>
<!-- Generator: Adobe Illustrator 23.0.3, SVG Export Plug-In . SVG Version: 6.00 Build 0)  -->
<svg version="1.1" id="Layer_1" xmlns="http://www.w3.org/2000/svg" xmlns:xlink="http://www.w3.org/1999/xlink" x="0px" y="0px"
	 viewBox="0 0 607 258" style="enable-background:new 0 0 607 258;" xml:space="preserve">
<style type="text/css">
	.st0{fill:#EBF9FB;}
	.st1{fill:#FFBE2E;}
	.st2{fill:#231F20;}
	.st3{fill:#9DDFEB;}
	.st4{fill:none;stroke:#231F20;stroke-width:1.25;stroke-linecap:round;stroke-miterlimit:10;}
	.st5{fill:none;stroke:#221F20;stroke-width:1.5;stroke-linecap:round;stroke-linejoin:round;}
	.st6{fill:#221F20;}
	.st7{fill:#FFFFFF;}
	.st8{fill:#FFFFFF;stroke:#231F20;stroke-width:0.5;stroke-miterlimit:10;}
</style>
<g id="product-augments_service" transform="translate(-0.09)">
	<g transform="translate(0.09)">
		<rect id="Rectangle_59" x="-0.5" class="st0" width="607" height="257.74"/>
	</g>
	<g transform="translate(30.033 13.816)">
		<path id="Path_219" class="st1" d="M134.47,7.18L122.03,0l-12.45,7.18v14.37l12.45,7.19l12.44-7.19L134.47,7.18z"/>
		<g id="Group_96" transform="translate(119.099 9.49)">
			<path id="Path_220" class="st2" d="M-0.5,0h3.74c2.13,0,3.78,1.17,3.78,3.26c0,1.93-1.37,3.09-3.48,3.09H1.82v3.41H-0.5V0z
				 M3.46,4.6c0.79-0.01,1.43-0.67,1.42-1.46c0,0,0-0.01,0-0.01C4.87,2.35,4.23,1.72,3.45,1.72c-0.01,0-0.01,0-0.02,0H1.78v2.87
				h1.68L3.46,4.6z"/>
		</g>
		<path id="Path_221" class="st1" d="M439.85,7.18L427.41,0l-12.45,7.18v14.37l12.45,7.19l12.44-7.19V7.18z"/>
		<g id="Group_97" transform="translate(424.468 9.49)">
			<path id="Path_222" class="st2" d="M-0.5,0h3.74c2.13,0,3.78,1.17,3.78,3.26c0,1.93-1.37,3.09-3.48,3.09H1.82v3.41H-0.5V0z
				 M3.47,4.6C4.26,4.59,4.9,3.94,4.89,3.15c0,0,0-0.01,0-0.01C4.88,2.35,4.24,1.72,3.46,1.72c-0.01,0-0.01,0-0.02,0H1.79v2.87h1.68
				L3.47,4.6z"/>
		</g>
		<path id="Path_223" class="st1" d="M285.54,203.58l-12.45-7.19l-12.44,7.19v14.37l12.44,7.19l12.45-7.19V203.58z"/>
		<g id="Group_98" transform="translate(270.155 205.889)">
			<path id="Path_224" class="st2" d="M-0.5,0h3.74c2.13,0,3.78,1.17,3.78,3.26c0,1.93-1.37,3.09-3.48,3.09H1.82v3.41H-0.5V0z
				 M3.47,4.6C4.26,4.59,4.9,3.94,4.89,3.15c0,0,0-0.01,0-0.01C4.88,2.35,4.24,1.72,3.46,1.72c-0.01,0-0.01,0-0.02,0H1.79V4.6
				L3.47,4.6L3.47,4.6z"/>
		</g>
		<path id="Path_225" class="st3" d="M532.22,134.58c-0.23,0.3-0.59,0.47-0.96,0.46H0.73c-0.68,0-1.23-0.56-1.23-1.24
			c0-0.28,0.09-0.54,0.27-0.76l12.74-16.06c0.36-0.45,0.36-1.08,0-1.53L-0.23,99.38c-0.42-0.53-0.33-1.31,0.2-1.73
			c0.22-0.17,0.49-0.27,0.76-0.27h530.52c0.37,0,0.73,0.17,0.96,0.46l13.95,17.59c0.36,0.45,0.36,1.08,0,1.53L532.22,134.58z"/>
		<g id="Group_99" transform="translate(68.14 91.561)">
			<path id="Path_226" class="st3" d="M-0.5,5.67c2.15-0.05,4.14-1.1,5.41-2.84c2.07-2.99,6.16-3.73,9.15-1.66
				c0.65,0.45,1.21,1.01,1.66,1.66c2.07,2.99,6.16,3.73,9.15,1.66c0.65-0.45,1.21-1.01,1.66-1.66c2.07-2.99,6.16-3.73,9.15-1.66
				c0.65,0.45,1.21,1.01,1.66,1.66c2.07,2.99,6.16,3.73,9.15,1.66c0.65-0.45,1.21-1.01,1.66-1.66c2.07-2.99,6.16-3.73,9.15-1.66
				c0.65,0.45,1.21,1.01,1.66,1.66c2.07,2.99,6.16,3.73,9.15,1.66c0.65-0.45,1.21-1.01,1.66-1.66c2.07-2.99,6.16-3.73,9.15-1.66
				c0.65,0.45,1.21,1.01,1.66,1.66c2.07,2.99,6.16,3.73,9.15,1.66c0.65-0.45,1.21-1.01,1.66-1.66c2.07-2.99,6.16-3.73,9.15-1.66
				c0.65,0.45,1.21,1.01,1.66,1.66c1.27,1.73,3.26,2.78,5.4,2.83l10.82,37.83c-2.14,0.05-4.14,1.1-5.4,2.83
				c-2.07,2.99-6.16,3.73-9.15,1.66c-0.65-0.45-1.21-1.01-1.66-1.66c-2.07-2.99-6.16-3.73-9.15-1.66c-0.65,0.45-1.21,1.01-1.66,1.66
				c-2.07,2.99-6.16,3.73-9.15,1.66c-0.65-0.45-1.21-1.01-1.66-1.66c-2.07-2.99-6.16-3.73-9.15-1.66c-0.65,0.45-1.21,1.01-1.66,1.66
				c-2.07,2.99-6.16,3.73-9.15,1.66c-0.65-0.45-1.21-1.01-1.66-1.66c-2.07-2.99-6.16-3.73-9.15-1.66c-0.65,0.45-1.21,1.01-1.66,1.66
				c-2.07,2.99-6.16,3.73-9.15,1.66c-0.65-0.45-1.21-1.01-1.66-1.66c-2.07-2.99-6.16-3.73-9.15-1.66c-0.65,0.45-1.21,1.01-1.66,1.66
				c-2.07,2.99-6.16,3.73-9.15,1.66c-0.65-0.45-1.21-1.01-1.66-1.66c-1.27-1.73-3.26-2.78-5.4-2.83L-0.5,5.67z"/>
		</g>
		<g id="Group_103" transform="translate(118.839 38.202)">
			<g id="Group_102">
				<g id="Group_101">
					<line id="Line_38" class="st4" x1="3.1" y1="0" x2="3.1" y2="29.55"/>
					<g id="Group_100" transform="translate(0 28.5)">
						<path id="Path_227" class="st2" d="M-0.5,0l3.6,6.24L6.7,0L-0.5,0z"/>
					</g>
				</g>
			</g>
		</g>
		<g id="Group_107" transform="translate(269.24 150.758)">
			<g id="Group_106" transform="translate(0 0)">
				<g id="Group_105">
					<line id="Line_39" class="st5" x1="3.82" y1="6.22" x2="3.82" y2="34.73"/>
					<g id="Group_104">
						<path id="Path_228" class="st6" d="M-0.5,7.49L3.82,0l4.33,7.49L-0.5,7.49z"/>
					</g>
				</g>
			</g>
		</g>
		<g id="Group_111" transform="translate(423.582 38.202)">
			<g id="Group_110">
				<g id="Group_109">
					<line id="Line_40" class="st5" x1="3.83" y1="0" x2="3.83" y2="28.52"/>
					<g id="Group_108" transform="translate(0 27.248)">
						<path id="Path_229" class="st6" d="M-0.5,0l4.33,7.5L8.14,0H-0.5z"/>
					</g>
				</g>
			</g>
		</g>
		<g id="Group_112" transform="translate(214.552 97.38)">
			<rect id="Rectangle_60" x="-0.5" y="0" class="st7" width="117.82" height="37.66"/>
		</g>
		<g id="Group_113" transform="translate(214.552 97.38)">
			<rect id="Rectangle_61" x="-0.5" y="0" width="117.82" height="37.66"/>
		</g>
		<rect id="Rectangle_62" x="377.74" y="87.59" class="st8" width="98.29" height="57.44"/>
		<g id="Group_114" transform="translate(365.801 51.942)">
			<rect id="Rectangle_63" x="11.94" y="40.54" class="st3" width="13.6" height="13.6"/>
			<rect id="Rectangle_64" x="45.96" y="40.54" class="st3" width="13.6" height="13.6"/>
			<rect id="Rectangle_65" x="62.97" y="40.54" class="st3" width="13.6" height="13.6"/>
			<rect id="Rectangle_66" x="96.59" y="0" class="st3" width="13.6" height="13.6"/>
			<rect id="Rectangle_67" x="-0.5" y="106.32" class="st3" width="13.6" height="13.6"/>
			<rect id="Rectangle_68" x="112.93" y="19.35" class="st3" width="13.6" height="13.6"/>
			<rect id="Rectangle_69" x="25.53" y="19.35" class="st3" width="13.6" height="13.6"/>
			<rect id="Rectangle_70" x="79.98" y="57.55" class="st3" width="13.6" height="13.6"/>
			<rect id="Rectangle_71" x="79.98" y="74.56" class="st3" width="13.6" height="13.6"/>
			<rect id="Rectangle_72" x="62.97" y="74.56" class="st3" width="13.6" height="13.6"/>
			<rect id="Rectangle_73" x="96.99" y="74.56" class="st3" width="13.6" height="13.6"/>
			<rect id="Rectangle_74" x="45.96" y="74.56" class="st3" width="13.6" height="13.6"/>
			<rect id="Rectangle_75" x="28.95" y="74.56" class="st3" width="13.6" height="13.6"/>
			<rect id="Rectangle_76" x="11.94" y="57.55" class="st3" width="13.6" height="13.6"/>
			<rect id="Rectangle_77" x="28.95" y="57.55" class="st3" width="13.6" height="13.6"/>
			<rect id="Rectangle_78" x="45.96" y="57.55" class="st3" width="13.6" height="13.6"/>
			<rect id="Rectangle_79" x="62.97" y="57.55" class="st3" width="13.6" height="13.6"/>
			<rect id="Rectangle_80" x="79.98" y="91.46" class="st3" width="13.6" height="13.6"/>
			<rect id="Rectangle_81" x="62.97" y="91.46" class="st3" width="13.6" height="13.6"/>
			<rect id="Rectangle_82" x="28.95" y="91.46" class="st3" width="13.6" height="13.6"/>
			<rect id="Rectangle_83" x="96.99" y="57.55" class="st3" width="13.6" height="13.6"/>
		</g>
	</g>
</g>
</svg>
