<?xml version="1.0" encoding="utf-8"?>
<!-- Generator: Adobe Illustrator 23.0.3, SVG Export Plug-In . SVG Version: 6.00 Build 0)  -->
<svg version="1.1" id="Layer_1" xmlns="http://www.w3.org/2000/svg" xmlns:xlink="http://www.w3.org/1999/xlink" x="0px" y="0px"
	 viewBox="0 0 607 221" style="enable-background:new 0 0 607 221;" xml:space="preserve">
<style type="text/css">
	.st0{fill:#EBF9FB;}
	.st1{fill:#9DDFEB;}
	.st2{fill:none;stroke:#221F20;stroke-width:1.5;stroke-linecap:round;stroke-linejoin:round;stroke-miterlimit:10;}
	.st3{fill:#FFFFFF;}
	.st4{clip-path:url(#SVGID_2_);}
	.st5{clip-path:url(#SVGID_4_);}
	.st6{clip-path:url(#SVGID_6_);}
	.st7{fill:#FFBE2E;}
	.st8{fill:#231F20;}
	.st9{fill:none;stroke:#231F20;stroke-width:1.25;stroke-linecap:round;stroke-miterlimit:10;}
	
		.st10{fill:none;stroke:#FFFFFF;stroke-width:1.05;stroke-linecap:round;stroke-linejoin:round;stroke-miterlimit:10;stroke-dasharray:4,4;}
</style>
<g id="product-constraints_service" transform="translate(-0.12 -0.79)">
	<g transform="translate(0.12 0.79)">
		<rect id="Rectangle_54" x="-0.02" y="-0.5" class="st0" width="607" height="220.84"/>
	</g>
	<g transform="translate(30.035 14.375)">
		<path id="Path_192" class="st1" d="M532.7,114.32c-0.23,0.3-0.59,0.47-0.96,0.46H1.21c-0.68,0-1.23-0.56-1.23-1.24
			c0-0.28,0.09-0.54,0.27-0.76l12.74-16.06c0.36-0.45,0.36-1.08,0-1.53L0.25,79.12c-0.42-0.53-0.33-1.31,0.2-1.73
			c0.22-0.17,0.49-0.27,0.76-0.27h530.52c0.37,0,0.73,0.17,0.96,0.46l13.95,17.59c0.36,0.45,0.36,1.08,0,1.53L532.7,114.32z"/>
		<g id="Group_66" transform="translate(122.443 32.903)">
			<line id="Line_35" class="st2" x1="-0.02" y1="-0.5" x2="-0.02" y2="63.12"/>
		</g>
		<g id="Group_67" transform="translate(273.557 119.155)">
			<line id="Line_36" class="st2" x1="-0.02" y1="-0.5" x2="-0.02" y2="38.85"/>
		</g>
		<g id="Group_68" transform="translate(427.908 32.903)">
			<line id="Line_37" class="st2" x1="-0.02" y1="-0.5" x2="-0.02" y2="33.69"/>
		</g>
		<circle id="Ellipse_8" class="st3" cx="122.42" cy="111.85" r="24.09"/>
		<g id="Group_70" transform="translate(98.355 88.266)">
			<g>
				<defs>
					<circle id="SVGID_1_" cx="24.07" cy="23.59" r="24.09"/>
				</defs>
				<clipPath id="SVGID_2_">
					<use xlink:href="#SVGID_1_"  style="overflow:visible;"/>
				</clipPath>
				<g id="Group_69" class="st4">
					<rect id="Rectangle_55" x="-7.66" y="16.37" class="st1" width="63.56" height="14.02"/>
				</g>
			</g>
		</g>
		<circle id="Ellipse_10" class="st2" cx="122.42" cy="111.85" r="24.09"/>
		<g id="Group_73" transform="translate(403.821 53.551)">
			<circle id="Ellipse_11" class="st3" cx="24.07" cy="23.59" r="24.09"/>
			<g id="Group_72">
				<g>
					<defs>
						<circle id="SVGID_3_" cx="24.07" cy="23.59" r="24.09"/>
					</defs>
					<clipPath id="SVGID_4_">
						<use xlink:href="#SVGID_3_"  style="overflow:visible;"/>
					</clipPath>
					<g id="Group_71" class="st5">
						<rect id="Rectangle_56" x="-7.67" y="18.32" class="st1" width="63.56" height="10.13"/>
					</g>
				</g>
			</g>
			<circle id="Ellipse_13" class="st2" cx="24.07" cy="23.59" r="24.09"/>
		</g>
		<g id="Group_76" transform="translate(249.469 72.368)">
			<circle id="Ellipse_14" class="st3" cx="24.07" cy="23.59" r="24.09"/>
			<g id="Group_75">
				<g>
					<defs>
						<circle id="SVGID_5_" cx="24.07" cy="23.59" r="24.09"/>
					</defs>
					<clipPath id="SVGID_6_">
						<use xlink:href="#SVGID_5_"  style="overflow:visible;"/>
					</clipPath>
					<g id="Group_74" class="st6">
						<rect id="Rectangle_57" x="-7.66" y="11.9" class="st1" width="63.56" height="22.96"/>
					</g>
				</g>
			</g>
			<circle id="Ellipse_16" class="st2" cx="24.07" cy="23.59" r="24.09"/>
		</g>
		<path id="Path_193" class="st7" d="M285.98,171.16l-12.45-7.19l-12.44,7.19v14.37l12.44,7.19l12.45-7.19V171.16z"/>
		<g id="Group_77" transform="translate(270.127 173.968)">
			<path id="Path_194" class="st8" d="M-0.02-0.5h3.74c2.13,0,3.78,1.17,3.78,3.26c0,1.93-1.37,3.09-3.48,3.09H2.3v3.41h-2.32V-0.5
				L-0.02-0.5z M3.95,4.1c0.79-0.01,1.43-0.67,1.42-1.46c0,0,0-0.01,0-0.01C5.36,1.85,4.72,1.22,3.94,1.22c-0.01,0-0.01,0-0.02,0
				H2.27V4.1L3.95,4.1L3.95,4.1z"/>
		</g>
		<path id="Path_195" class="st7" d="M134.92,6.68L122.48-0.5l-12.44,7.18v14.37l12.44,7.18l12.44-7.18L134.92,6.68z"/>
		<g id="Group_78" transform="translate(119.07 9.49)">
			<path id="Path_196" class="st8" d="M-0.02-0.5h3.74c2.13,0,3.78,1.17,3.78,3.26c0,1.93-1.37,3.09-3.48,3.09H2.3v3.41h-2.32V-0.5z
				 M3.95,4.1c0.79-0.01,1.43-0.67,1.42-1.46c0,0,0-0.01,0-0.01C5.36,1.85,4.72,1.22,3.94,1.22c-0.01,0-0.01,0-0.02,0H2.27v2.87
				h1.68L3.95,4.1z"/>
		</g>
		<path id="Path_197" class="st7" d="M440.33,6.68L427.89-0.5l-12.45,7.18v14.37l12.45,7.18l12.44-7.18V6.68z"/>
		<g id="Group_79" transform="translate(424.468 9.49)">
			<path id="Path_198" class="st8" d="M-0.02-0.5h3.74c2.13,0,3.78,1.17,3.78,3.26c0,1.93-1.37,3.09-3.48,3.09H2.3v3.41h-2.32V-0.5z
				 M3.95,4.1c0.79-0.01,1.43-0.67,1.42-1.46c0,0,0-0.01,0-0.01C5.36,1.85,4.72,1.22,3.94,1.22c-0.01,0-0.01,0-0.02,0H2.27v2.87
				h1.68L3.95,4.1z"/>
		</g>
	</g>
</g>
<g id="Product-access_to_service" transform="translate(0 -0.6)">
	<g transform="translate(0 0.6)">
		<rect id="Rectangle_58" y="-0.01" class="st0" width="607" height="221.02"/>
	</g>
	<g transform="translate(30.03 18.001)">
		<path id="Path_199" class="st1" d="M532.72,110.43c-0.23,0.3-0.59,0.47-0.96,0.46H1.23c-0.68,0-1.23-0.56-1.23-1.24
			c0-0.28,0.09-0.54,0.27-0.76l12.74-16.06c0.36-0.45,0.36-1.08,0-1.53L0.27,75.24c-0.42-0.53-0.33-1.31,0.2-1.73
			c0.22-0.17,0.49-0.27,0.76-0.27h530.52c0.37,0,0.73,0.17,0.96,0.46l13.95,17.59c0.36,0.45,0.36,1.08,0,1.53L532.72,110.43z"/>
		<g id="Group_80" transform="translate(159.759 73.592)">
			<path id="Path_200" class="st1" d="M0-0.01"/>
		</g>
		<g id="Group_84" transform="translate(83.884 36.256)">
			<path id="Path_201" class="st1" d="M55.81,36.99c-8.1,0.01-16.12-1.61-23.58-4.76C17.71,26.08,6.15,14.51,0-0.01
				c0,41.23,33.42,74.66,74.65,74.66c0,0,0.01,0,0.01,0"/>
			<g id="Group_83" transform="translate(52.26 51.874)">
				<g id="Group_82">
					<path id="Path_202" class="st9" d="M0-0.01c5.42,2.5,11.28,3.89,17.25,4.08"/>
					<g id="Group_81" transform="translate(16.158 0.424)">
						<path id="Path_203" class="st8" d="M0.07,7.19l6.2-3.66l-6.27-3.55L0.07,7.19z"/>
					</g>
				</g>
			</g>
			<path id="Path_204" class="st10" d="M10.4,38.02c11.46,19.36,31.03,32.52,53.28,35.83"/>
		</g>
		<g id="Group_88" transform="translate(350.829 36.256)">
			<path id="Path_205" class="st1" d="M55.82,36.99c-8.1,0.01-16.12-1.61-23.58-4.76C17.71,26.08,6.15,14.51,0-0.01
				c0,41.23,33.42,74.66,74.65,74.66c0,0,0.01,0,0.01,0"/>
			<g id="Group_87" transform="translate(52.25 51.874)">
				<g id="Group_86">
					<path id="Path_206" class="st9" d="M0-0.01c5.42,2.5,11.28,3.89,17.25,4.08"/>
					<g id="Group_85" transform="translate(16.158 0.424)">
						<path id="Path_207" class="st8" d="M0.07,7.19l6.21-3.66L0-0.01L0.07,7.19z"/>
					</g>
				</g>
			</g>
			<path id="Path_208" class="st10" d="M10.4,38.02c11.46,19.36,31.03,32.52,53.28,35.83"/>
		</g>
		<g id="Group_92" transform="translate(220.748 73.582)">
			<path id="Path_209" class="st1" d="M55.82,37.65c-24.35,0-46.33,14.58-55.82,37C0,33.42,33.42-0.01,74.66-0.01c0,0,0,0,0.01,0"/>
			<g id="Group_91" transform="translate(52.26 15.156)">
				<g id="Group_90">
					<path id="Path_210" class="st9" d="M0,7.61c5.42-2.5,11.28-3.89,17.25-4.08"/>
					<g id="Group_89" transform="translate(16.158)">
						<path id="Path_211" class="st8" d="M0,7.19l6.27-3.55l-6.2-3.66L0,7.19z"/>
					</g>
				</g>
			</g>
			<path id="Path_212" class="st10" d="M10.4,36.62C21.86,17.26,41.43,4.1,63.68,0.79"/>
		</g>
		<path id="Path_213" class="st7" d="M233.17,164.08l-12.45-7.19l-12.44,7.19v14.37l12.44,7.19l12.45-7.19V164.08z"/>
		<g id="Group_93" transform="translate(217.289 166.405)">
			<path id="Path_214" class="st8" d="M0-0.01h3.74c2.13,0,3.78,1.17,3.78,3.26c0,1.93-1.37,3.09-3.48,3.09H2.32v3.41H0V-0.01
				L0-0.01z M3.97,4.59C4.76,4.58,5.4,3.93,5.39,3.13c0,0,0-0.01,0-0.01C5.38,2.34,4.74,1.71,3.96,1.71c-0.01,0-0.01,0-0.02,0H2.29
				v2.87L3.97,4.59L3.97,4.59z"/>
		</g>
		<path id="Path_215" class="st7" d="M363.27,7.18l-12.44-7.19l-12.45,7.19v14.37l12.45,7.19l12.44-7.19V7.18z"/>
		<g id="Group_94" transform="translate(347.389 9.5)">
			<path id="Path_216" class="st8" d="M0-0.01h3.74c2.13,0,3.78,1.17,3.78,3.26c0,1.93-1.37,3.09-3.48,3.09H2.32v3.41H0V-0.01z
				 M3.97,4.59C4.76,4.58,5.4,3.93,5.39,3.13c0,0,0-0.01,0-0.01C5.38,2.34,4.74,1.71,3.96,1.71c-0.01,0-0.01,0-0.02,0H2.29v2.87
				L3.97,4.59L3.97,4.59z"/>
		</g>
		<path id="Path_217" class="st7" d="M96.35,7.18L83.9-0.01L71.46,7.18v14.37l12.44,7.19l12.45-7.19V7.18z"/>
		<g id="Group_95" transform="translate(80.473 9.5)">
			<path id="Path_218" class="st8" d="M0-0.01h3.74c2.13,0,3.78,1.17,3.78,3.26c0,1.93-1.37,3.09-3.48,3.09H2.32v3.41H0V-0.01z
				 M3.97,4.59C4.76,4.58,5.4,3.93,5.39,3.13c0,0,0-0.01,0-0.01C5.38,2.34,4.74,1.71,3.96,1.71c-0.01,0-0.01,0-0.02,0H2.29v2.87
				L3.97,4.59L3.97,4.59z"/>
		</g>
	</g>
</g>
</svg>
